<svg width="70" height="70" viewBox="0 0 70 70" fill="none" xmlns="http://www.w3.org/2000/svg">
<path d="M70 0H0V70H70V0Z" fill="#12100E"/>
<path d="M16.7045 23.4108C16.763 22.8336 16.5428 22.263 16.1118 21.8745L11.721 16.585V15.7949H25.3544L35.8924 38.906L45.157 15.7949H58.1538V16.585L54.3997 20.1845C54.076 20.4312 53.9155 20.8367 53.9826 21.238V47.6852C53.9155 48.0865 54.076 48.492 54.3997 48.7387L58.066 52.3381V53.1283H39.6246V52.3381L43.4227 48.6509C43.7959 48.2778 43.7959 48.168 43.7959 47.5974V26.2202L33.236 53.0405H31.8089L19.5147 26.2202V44.1955C19.4122 44.9512 19.6631 45.7121 20.1952 46.2586L25.1349 52.2503V53.0405H11.1282V52.2503L16.0679 46.2586C16.5961 45.7112 16.8324 44.9453 16.7045 44.1955V23.4108Z" fill="white"/>
</svg>
